<?xml version="1.0" encoding="utf-8"?>
<!-- Generator: Adobe Illustrator 16.0.0, SVG Export Plug-In . SVG Version: 6.00 Build 0)  -->
<!DOCTYPE svg PUBLIC "-//W3C//DTD SVG 1.1//EN" "http://www.w3.org/Graphics/SVG/1.1/DTD/svg11.dtd">
<svg version="1.1" id="Layer_1" xmlns="http://www.w3.org/2000/svg" xmlns:xlink="http://www.w3.org/1999/xlink" x="0px" y="0px"
	 width="111.25px" height="122.75px" viewBox="0 0 111.25 122.75" enable-background="new 0 0 111.25 122.75" xml:space="preserve">
<g id="head">
	<g>
		<path d="M58.085,84.232c-4.503,0-8.868-0.978-12.974-2.903c-7.395-3.47-12.996-9.613-15.771-17.297
			c-2.775-7.684-2.392-15.988,1.079-23.383c3.459-7.372,9.52-12.92,17.13-15.711L45.1,16.439c-0.892-0.029-1.756-0.238-2.572-0.622
			c-3.285-1.542-4.704-5.47-3.162-8.756c1.08-2.301,3.42-3.788,5.964-3.788c0.969,0,1.909,0.21,2.792,0.625
			c3.287,1.543,4.705,5.472,3.163,8.758c-0.464,0.989-1.153,1.833-2.016,2.476l2.335,8.625c2.143-0.467,4.33-0.704,6.518-0.704
			c4.503,0,8.868,0.979,12.976,2.905c6.336,2.973,11.453,8.027,14.504,14.295l9.293-4.029c-0.035-1.077,0.193-2.142,0.679-3.121
			c1.116-2.264,3.381-3.67,5.909-3.67c1.015,0,1.992,0.229,2.908,0.681c1.577,0.779,2.756,2.125,3.32,3.79
			c0.564,1.665,0.446,3.451-0.332,5.028c-1.117,2.264-3.382,3.671-5.908,3.671c-1.014,0-1.992-0.229-2.908-0.681
			c-0.801-0.396-1.512-0.949-2.088-1.622l-9.273,3.92c2.404,7.411,1.912,15.338-1.41,22.417
			C80.773,77.326,69.898,84.232,58.085,84.232L58.085,84.232z"/>
		<path fill="#FCFCFC" d="M45.331,4.272c0.794,0,1.601,0.17,2.368,0.53c2.792,1.311,3.993,4.636,2.683,7.428
			c-0.504,1.075-1.309,1.915-2.265,2.464l2.712,10.019l0.064,0.237c2.351-0.592,4.779-0.898,7.23-0.898
			c4.21,0,8.486,0.903,12.551,2.811c6.68,3.134,11.639,8.445,14.432,14.69l0.225-0.092l10.627-4.607
			c-0.167-1.091-0.014-2.243,0.514-3.308c0.973-1.971,2.953-3.114,5.014-3.114c0.828,0,1.673,0.186,2.467,0.578
			c2.765,1.365,3.898,4.713,2.533,7.478c-0.973,1.971-2.952,3.114-5.012,3.114c-0.828,0-1.672-0.186-2.466-0.578
			c-0.928-0.458-1.672-1.139-2.2-1.946l-0.473,0.196l-10.365,4.381l0.02,0.099c2.513,7.083,2.345,15.118-1.102,22.458
			C79.852,76.939,69.2,83.232,58.085,83.232c-4.21,0-8.487-0.901-12.549-2.81c-14.79-6.94-21.153-24.559-14.211-39.35
			c3.586-7.642,10.023-13.034,17.448-15.504l-0.048-0.167L45.99,15.91l-0.142-0.493c-0.174,0.017-0.349,0.025-0.525,0.025
			c-0.794,0-1.602-0.17-2.369-0.531c-2.791-1.31-3.992-4.635-2.682-7.426C41.223,5.46,43.233,4.272,45.331,4.272 M45.331,2.272
			L45.331,2.272c-2.929,0-5.625,1.712-6.869,4.363c-1.776,3.785-0.143,8.31,3.643,10.086c0.713,0.335,1.459,0.554,2.227,0.655
			l2.004,6.955c-7.451,2.978-13.381,8.562-16.821,15.892c-3.584,7.637-3.98,16.213-1.114,24.148
			c2.866,7.936,8.649,14.277,16.286,17.861c4.24,1.99,8.749,3,13.399,3c12.199,0,23.43-7.133,28.611-18.172
			c3.301-7.033,3.896-14.875,1.728-22.273l7.804-3.298c0.558,0.534,1.194,0.982,1.894,1.327c1.056,0.521,2.183,0.784,3.353,0.784
			c2.909,0,5.518-1.62,6.805-4.228c0.896-1.816,1.033-3.873,0.383-5.792s-2.01-3.469-3.824-4.366
			c-1.055-0.521-2.184-0.784-3.354-0.784c-2.91,0-5.52,1.62-6.807,4.229c-0.453,0.916-0.713,1.899-0.771,2.902l-7.835,3.397
			c-3.189-6.078-8.295-10.974-14.547-13.908c-4.24-1.99-8.75-3-13.399-3c-1.942,0-3.885,0.181-5.797,0.538l-1.921-7.097
			c0.747-0.671,1.353-1.487,1.788-2.414c1.777-3.785,0.142-8.311-3.643-10.088C47.531,2.514,46.448,2.272,45.331,2.272L45.331,2.272
			L45.331,2.272z"/>
	</g>
</g>
<g id="back">
	
		<linearGradient id="SVGID_1_" gradientUnits="userSpaceOnUse" x1="-437.1865" y1="13.499" x2="-349.1445" y2="13.499" gradientTransform="matrix(0.4249 -0.9053 -0.9053 -0.4249 225.9401 -273.1832)">
		<stop  offset="0" style="stop-color:#850004"/>
		<stop  offset="0.1272" style="stop-color:#A50407"/>
		<stop  offset="0.2856" style="stop-color:#C5080B"/>
		<stop  offset="0.4495" style="stop-color:#DF0B0E"/>
		<stop  offset="0.6191" style="stop-color:#F10D0F"/>
		<stop  offset="0.7975" style="stop-color:#FC0F11"/>
		<stop  offset="1" style="stop-color:#FF0F11"/>
	</linearGradient>
	<circle fill="url(#SVGID_1_)" stroke="#FCFCFC" stroke-width="2" stroke-miterlimit="10" cx="46.664" cy="77.015" r="44.013"/>
</g>
<g id="spots_with_clipping">
	<g>
		<defs>
			<ellipse id="SVGID_2_" cx="46.687" cy="77.031" rx="43" ry="43.031"/>
		</defs>
		<clipPath id="SVGID_3_">
			<use xlink:href="#SVGID_2_"  overflow="visible"/>
		</clipPath>
		<g id="spots" clip-path="url(#SVGID_3_)">
			<circle cx="71.078" cy="57.248" r="7.994"/>
			<circle cx="79.001" cy="83.82" r="7.995"/>
			<circle cx="53.798" cy="90.93" r="7.995"/>
			<circle cx="57.811" cy="115.827" r="7.994"/>
			<circle cx="47.112" cy="46.228" r="7.994"/>
			<circle cx="21.611" cy="57.112" r="7.994"/>
			<circle cx="32.245" cy="81.042" r="7.995"/>
			<circle cx="10.53" cy="93.865" r="7.994"/>
		</g>
	</g>
</g>
<g id="highlights">
	
		<linearGradient id="SVGID_4_" gradientUnits="userSpaceOnUse" x1="33.1743" y1="83.6826" x2="57.4856" y2="16.8878" gradientTransform="matrix(1 0 0 -1 0 123.75)">
		<stop  offset="0" style="stop-color:#FFFFFF;stop-opacity:0.7"/>
		<stop  offset="1" style="stop-color:#FFFFFF;stop-opacity:0.1"/>
	</linearGradient>
	<path fill="url(#SVGID_4_)" d="M28.814,105.618c-5.325-2.591-10.042-6.55-13.58-11.773C4.247,77.619,8.815,55.342,25.438,44.086
		c10.662-7.22,23.694-8.15,34.568-3.606C60.559,40.71,29.429,105.918,28.814,105.618z M36.948,108.419
		c9.37,2.008,19.606,0.295,28.276-5.576c16.621-11.254,21.189-33.53,10.202-49.757c-2.151-3.179-4.741-5.889-7.64-8.109
		C67.139,44.481,36.399,108.302,36.948,108.419z"/>
</g>
<g id="white_divider">
	
		<rect x="45.736" y="33.234" transform="matrix(-0.9054 -0.4245 0.4245 -0.9054 56.719 167.96)" fill="#FEFEFE" width="2.667" height="88.855"/>
</g>
</svg>
