<svg id="Layer_1" data-name="Layer 1" xmlns="http://www.w3.org/2000/svg" viewBox="0 0 154.25 152.59"><defs><style>.cls-1{fill:#fa9b0f;stroke:#fff;stroke-miterlimit:10;stroke-width:5px;}.cls-2{fill:#fff;}</style></defs><title>uRater-logo</title><polygon class="cls-1" points="2.5 148.57 2.5 4.03 148.61 76.3 2.5 148.57"/><path class="cls-2" d="M39.13,38.74q-1.47,13.44-2.48,23.6T35.37,76.4q-1,14.7,1.81,19.86t10.64,5.62a24.8,24.8,0,0,0,8.73-1.25,69.28,69.28,0,0,0,11.17-4.75q1-10.59,1.56-17.48c.4-4.57.68-8,.82-10.11l.33-4.68q.63-8.69-.75-11t-5.75-2.58c-.48,0-1-.06-1.56-.07H60.65l-.13-4.44q6.23,0,12.29-.54t11.92-1.46q-1.28,11.76-2.14,21t-1.36,16.1q-.2,2.82-.58,7c-.25,2.82-.41,4.69-.46,5.62q-.45,6.39.57,8.47T85,104a12.34,12.34,0,0,0,1.72,0,25.83,25.83,0,0,0,2.62-.38l.28,4.3L67,111.86l.44-10.28A80.76,80.76,0,0,1,53.07,109a27.32,27.32,0,0,1-11,2q-10-.65-15.19-6.42T22.34,89c.11-1.66.42-5.12.95-10.39.21-2.2.35-3.92.43-5.16l.77-7.7c.09-1.28.23-2.94.43-4.9s.31-3.35.36-4.09q.42-5.88-.51-7.92A4,4,0,0,0,21,46.68a17.87,17.87,0,0,0-2.07,0l-2.43.13-.19-4.51c3.54-.33,7.19-.79,11-1.35S35,39.64,39.13,38.74Z" transform="translate(0 0)"/></svg>